<?xml version="1.0" encoding="UTF-8"?> <svg xmlns="http://www.w3.org/2000/svg" id="_레이어_2" viewBox="0 0 168.08 70.84"><defs><style>.cls-1{fill:#d50057;}</style></defs><g id="Layer_1"><g><g><path class="cls-1" d="M74.9,9.11l9.11,9.11,9.11-9.11L84.01,0l-9.11,9.11Zm12.88,0s0,0,0,0c-1.59,.75-2.96,2.06-3.76,3.83,0,0,0,0,0,0-.8-1.77-2.18-3.07-3.76-3.83,0,0,0,0,0,0,1.58-.75,2.96-2.06,3.76-3.83,0,0,0,0,0,0,.8,1.77,2.18,3.07,3.76,3.83Z"></path><path class="cls-1" d="M46.79,8.94c-1.36,.73-2.65,1.71-3.46,2.98-.82,1.26-1.36,2.52-1.52,4.12-.12,1.21,.12,2.7,.21,2.99,0,0-1.45-1.11-2.23-1.83-2.13-1.94-4.48-4.3-6.55-5.17-1.01-.43-3.76-1.66-7-.16-1.16,.54-2.14,1.4-2.85,2.42-.71,1.02-1.98,3.84-.64,6.86,.47,1.06,1.71,2.42,2.82,2.88,1.21,.49,3.05,.63,3.05,.63l.54-.82c-5-1.19-4.12-5.23-3.73-6.2,.2-.49,.6-1.12,1.14-1.59,.62-.53,1.63-.91,2.42-1.02,2.59-.35,4.71,1.4,9.51,4.76,2.37,1.66,4.53,2.89,6.99,3.87,2.48,.98,4.53,1.48,4.53,1.48l.68-1.12c-4.15-1.63-4.76-3.01-5.29-4.7-.27-.93-.43-1.8-.1-3,.38-1.39,1.33-2.82,2.6-3.49,3.12-1.65,7.23,.29,9.01,1.16,2.04,.99,4.01,2.19,6.01,3.46,2.98,1.9,10.3,6.23,10.3,6.23l1.44-1.55-14.33-10.74c-1.05-.69-7.8-5.56-13.57-2.44Z"></path><path class="cls-1" d="M144.62,14.3c-.71-1.02-1.69-1.88-2.85-2.42-3.24-1.5-5.99-.27-7,.16-2.07,.87-4.42,3.23-6.55,5.17-.78,.71-2.23,1.83-2.23,1.83,.09-.3,.33-1.79,.21-2.99-.15-1.6-.69-2.86-1.52-4.12-.81-1.26-2.1-2.24-3.46-2.98-5.77-3.11-12.52,1.75-13.57,2.44l-14.33,10.74,1.44,1.55s7.32-4.33,10.3-6.23c2-1.27,3.97-2.47,6.01-3.46,1.79-.87,5.89-2.81,9.01-1.16,1.27,.67,2.22,2.11,2.6,3.49,.33,1.21,.17,2.08-.1,3-.53,1.7-1.14,3.07-5.29,4.7l.68,1.12s2.05-.5,4.53-1.48c2.47-.97,4.62-2.21,6.99-3.87,4.81-3.36,6.93-5.11,9.51-4.76,.79,.11,1.8,.49,2.42,1.02,.54,.47,.94,1.11,1.14,1.59,.39,.97,1.28,5.01-3.73,6.2l.54,.82s1.84-.14,3.05-.63c1.11-.46,2.35-1.82,2.82-2.88,1.34-3.02,.07-5.84-.64-6.86Z"></path></g><g><polygon class="cls-1" points="22.17 38.95 7.64 38.95 7.64 50.33 20.65 50.33 20.65 54.39 7.64 54.39 7.64 66.29 22.17 66.29 22.17 70.34 0 70.34 0 34.9 22.17 34.9 22.17 38.95"></polygon><polygon class="cls-1" points="58.96 34.9 58.96 38.95 48.27 38.95 48.27 70.34 40.62 70.34 40.62 38.95 29.94 38.95 29.94 34.9 58.96 34.9"></polygon><path class="cls-1" d="M119.52,34.9c6.38,0,10.69,1.2,14.29,4.81,3.79,3.79,4.56,10.21,4.56,12.9,0,2.44-.36,8.71-4.56,12.91-3.61,3.61-7.92,4.81-14.29,4.81h-11.9V34.9h11.9Zm0,31.38c4.39,0,6.42-1.18,8.55-3.55,2.12-2.36,3.19-5.74,3.19-10.13s-1.06-7.76-3.19-10.13c-2.12-2.36-4.16-3.54-8.55-3.54h-4.25v27.34s4.25,0,4.25,0Z"></path><polygon class="cls-1" points="168.08 38.95 153.55 38.95 153.55 50.33 166.56 50.33 166.56 54.39 153.55 54.39 153.55 66.29 168.08 66.29 168.08 70.34 145.91 70.34 145.91 34.9 168.08 34.9 168.08 38.95"></polygon><path class="cls-1" d="M89.69,34.89h0s-.09,.01-.09,.01v21.82c0,6.68-2.7,10.02-8.1,10.02-5.06,0-7.59-3.37-7.59-10.12v-21.71h-7.7v22.27c0,4.33,1.26,7.69,3.77,10.08,2.51,2.4,6.05,3.6,10.6,3.6,4.32,0,6.31-1.2,8.69-3.6,.64-.64,1.18-1.36,1.65-2.15l3.55,5.57h2.71V34.89h-7.51Z"></path></g></g></g></svg> 